HIERARCHY
ROOT Hips
{
  OFFSET -32.5998 29.0326 120.673
  CHANNELS 6 Xposition Yposition Zposition Zrotation Xrotation Yrotation
  JOINT LeftUpLeg
  {
    OFFSET 8.64259 1.95398 -2.38835
    CHANNELS 3 Zrotation Xrotation Yrotation
    JOINT LeftLeg
    {
      OFFSET 43.7702 0 0
      CHANNELS 3 Zrotation Xrotation Yrotation
      JOINT LeftFoot
      {
        OFFSET 40.6238 0 0
        CHANNELS 3 Zrotation Xrotation Yrotation
        JOINT LeftToeBase
        {
          OFFSET 12.7242 0 0
          CHANNELS 3 Zrotation Xrotation Yrotation
          End Site
          {
            OFFSET 0 0 0
          }
        }
      }
    }
  }
  JOINT RightUpLeg
  {
    OFFSET -8.2249 1.95398 -2.59336
    CHANNELS 3 Zrotation Xrotation Yrotation
    JOINT RightLeg
    {
      OFFSET 43.5653 0 0
      CHANNELS 3 Zrotation Xrotation Yrotation
      JOINT RightFoot
      {
        OFFSET 40.6238 0 0
        CHANNELS 3 Zrotation Xrotation Yrotation
        JOINT RightToeBase
        {
          OFFSET 12.7242 0 0
          CHANNELS 3 Zrotation Xrotation Yrotation
          End Site
          {
            OFFSET 0 0 0
          }
        }
      }
    }
  }
  JOINT Spine
  {
    OFFSET 0.165834 0.87714 6.61349
    CHANNELS 3 Zrotation Xrotation Yrotation
    JOINT Spine1
    {
      OFFSET 7.38963 1.71661e-005 0
      CHANNELS 3 Zrotation Xrotation Yrotation
      JOINT Spine2
      {
        OFFSET 11.9445 1.14441e-005 0
        CHANNELS 3 Zrotation Xrotation Yrotation
        JOINT Spine3
        {
          OFFSET 14.7254 4.19617e-005 0
          CHANNELS 3 Zrotation Xrotation Yrotation
          JOINT Spine4
          {
            OFFSET 10.9679 0 0
            CHANNELS 3 Zrotation Xrotation Yrotation
            JOINT RightShoulder
            {
              OFFSET 2.46616 -1.6653 3.69651
              CHANNELS 3 Zrotation Xrotation Yrotation
              JOINT RightArm
              {
                OFFSET 13.0012 0 0
                CHANNELS 3 Zrotation Xrotation Yrotation
                JOINT RightForeArm
                {
                  OFFSET 28.7848 1.62311e-005 0
                  CHANNELS 3 Zrotation Xrotation Yrotation
                  JOINT RightHand
                  {
                    OFFSET 26.5688 1.62095e-005 0
                    CHANNELS 3 Zrotation Xrotation Yrotation
                    End Site
                    {
                      OFFSET 0 0 0
                    }
                  }
                }
              }
            }
            JOINT LeftShoulder
            {
              OFFSET 2.38034 -1.29275 -3.7523
              CHANNELS 3 Zrotation Xrotation Yrotation
              JOINT LeftArm
              {
                OFFSET 16.3182 6.07031e-005 0
                CHANNELS 3 Zrotation Xrotation Yrotation
                JOINT LeftForeArm
                {
                  OFFSET 27.0901 0 0
                  CHANNELS 3 Zrotation Xrotation Yrotation
                  JOINT LeftHand
                  {
                    OFFSET 24.5451 1.51738e-005 0
                    CHANNELS 3 Zrotation Xrotation Yrotation
                    End Site
                    {
                      OFFSET 0 0 0
                    }
                  }
                }
              }
            }
            JOINT Neck
            {
              OFFSET 5.0226 -0.0266342 0
              CHANNELS 3 Zrotation Xrotation Yrotation
              JOINT Head
              {
                OFFSET 6.69364 2.86102e-005 0
                CHANNELS 3 Zrotation Xrotation Yrotation
                End Site
                {
                  OFFSET 0 0 0
                }
              }
            }
          }
        }
      }
    }
  }
}
MOTION
Frames:	10
Frame Time:	0.0416667
-5.58301 97.5408 27.5416 -170.671 -87.1813 -164.163 -167.323 11.3021 106.495 -32.2577 17.9768 0.600409 81.2904 13.1895 -4.4226 25.9836 -7.80549 14.3711 177.977 1.87239 103.857 -22.6545 -3.39481 2.45606 76.5727 -7.00907 -0.736455 17.355 3.04128 6.15827 0.38801 7.75927 -91.1066 11.3526 0.256216 -2.22933 -0.320213 0.157881 -2.23845 -22.8421 0.91424 -2.04939 -2.82945 0.914232 -2.04942 90.6125 -29.7893 -105.62 34.6699 -23.4797 -8.92449 -13.7681 -18.3682 -25.5147 -11.5687 -0.330523 -1.92928 -89.0775 -51.1968 80.3441 -15.7892 35.8644 -23.1337 4.08165 -7.81595 -11.0994 1.17242 -0.0694435 -3.68797 8.92247 -0.265904 -10.9 -5.2819 2.12061 -0.924756 
-5.65581 97.5437 27.0622 -153.286 -87.0886 -146.568 -167.228 11.74 106.612 -32.3842 17.2109 0.574612 81.3857 13.2712 -4.61042 25.7089 -8.07851 14.5919 178.49 2.08329 104.303 -21.9003 -3.64417 1.89371 76.1486 -6.17303 -0.337989 17.2221 3.19581 5.88257 0.323107 7.7381 -91.1023 11.3937 0.128646 -2.20833 -0.279108 0.0313515 -2.21184 -22.8007 0.786244 -2.06769 -2.78804 0.786246 -2.06768 90.2457 -30.3911 -106.126 33.5728 -23.7 -9.47576 -13.3576 -18.2014 -24.9896 -12.2517 -0.365723 -1.77417 -88.6194 -50.9067 80.967 -15.6131 36.1841 -23.9388 4.43238 -6.51781 -10.5686 3.18494 0.00549028 -2.37816 8.62171 -0.424239 -12.6547 -5.63881 2.3466 -2.29774 
-5.60657 97.4959 26.584 -141.614 -87.1149 -135.033 -167.284 12.3523 106.325 -32.5666 16.815 0.464421 81.2351 13.2812 -4.46311 26.18 -7.88404 14.7692 178.444 2.59188 104.139 -21.5197 -4.12878 1.69823 76.0507 -5.97719 -0.969451 17.272 2.69598 7.20072 0.24147 7.73149 -91.0822 11.4056 -0.0245379 -2.15298 -0.267103 -0.119255 -2.14982 -22.7888 0.623509 -2.06091 -2.77612 0.623511 -2.06091 90.01 -30.4682 -106.562 33.2204 -23.2581 -9.7126 -13.9849 -19.4847 -25.1383 -12.0311 -0.26326 -2.72257 -88.7658 -50.9944 80.7661 -15.1628 36.7946 -24.5233 3.99271 -7.17799 -10.974 1.89149 -0.0556315 -3.40995 8.84166 -0.954621 -13.6153 -5.92418 2.07999 -2.89582 
-5.57868 97.4523 25.9823 -132.009 -86.5016 -125.453 -167.27 12.6409 106.182 -32.9518 16.1675 0.438711 81.1207 13.237 -4.55243 26.5954 -7.99516 15.5067 178.44 3.13192 104.054 -21.997 -4.477 1.53634 75.8464 -5.56543 -0.239469 17.9326 2.51671 6.97203 0.166799 7.76217 -91.0491 11.3434 -0.157078 -2.0734 -0.329166 -0.248163 -2.06449 -22.8515 0.473191 -2.0248 -2.83884 0.473185 -2.02482 89.9672 -30.7047 -106.556 33.1509 -23.8418 -9.74581 -13.5702 -18.6701 -24.9908 -11.4907 -0.195742 -3.32288 -88.4555 -50.4901 81.1326 -15.8039 36.56 -24.1815 3.77659 -8.33395 -10.8375 2.77005 -0.0463778 -3.39043 9.05808 -1.17018 -14.6734 -6.09364 2.12939 -2.76268 
-5.39807 97.5428 25.6907 -125.459 -85.1911 -118.607 -166.976 12.1921 106.379 -32.9719 14.612 0.388598 81.3038 13.0815 -5.25848 26.845 -7.94946 15.7235 178.47 2.65741 104.008 -21.6107 -5.90108 1.57544 75.3657 -5.68509 -0.603376 17.9281 2.28832 7.63572 0.209416 7.80551 -91.0821 11.257 -0.0868617 -2.14584 -0.415657 -0.181193 -2.13995 -22.9373 0.561929 -2.07281 -2.92462 0.561924 -2.07282 90.0779 -30.4996 -106.416 33.5614 -23.1167 -9.35179 -13.9727 -19.566 -25.096 -11.9939 -0.279289 -2.56213 -88.4585 -50.434 81.1175 -15.8438 36.6811 -24.0719 4.42092 -5.64216 -11.2385 0.829187 -0.0556662 -3.12221 8.16413 -0.973581 -15.4655 -4.61772 2.33367 -2.41924 
-5.1466 97.5318 25.6341 -123.503 -85.1675 -116.466 -167.139 12.4589 106.327 -33.3265 14.5991 0.448152 81.4675 13.2614 -4.95038 26.481 -8.07615 15.5298 178.459 2.62868 103.94 -21.215 -5.8974 1.61566 75.7144 -6.09559 -0.979603 17.7093 2.03257 8.60858 0.168673 7.80894 -91.1232 11.2488 -0.186984 -2.21773 -0.424009 -0.284381 -2.20737 -22.9444 0.488021 -2.17146 -2.93179 0.488016 -2.17148 90.183 -30.4073 -106.243 33.4335 -22.8432 -9.41684 -14.3821 -19.8639 -25.2766 -10.8793 -0.131379 -3.92299 -88.6904 -50.954 80.8707 -14.8221 37.1175 -24.6606 4.23288 -6.20508 -11.3309 1.3024 -0.0420546 -2.86007 8.44023 -1.03372 -15.5877 -4.65864 2.34367 -2.80029 
-4.69184 97.6214 25.6346 -122.821 -85.0193 -115.822 -167.353 12.1918 105.883 -33.2331 14.1457 0.501783 81.3942 13.2923 -4.75062 26.588 -8.13825 15.7896 178.037 2.39906 103.282 -20.93 -5.91384 1.85731 75.3628 -5.71952 0.381343 18.9864 1.92674 7.48111 0.167669 7.80692 -91.158 11.2523 -0.205218 -2.28515 -0.420591 -0.305566 -2.27391 -22.9401 0.490872 -2.24124 -2.92745 0.490867 -2.24125 90.2886 -30.2193 -106.105 33.3784 -23.2343 -9.32696 -14.0306 -18.8961 -25.4112 -11.2048 -0.155899 -3.7048 -89.0179 -51.346 80.4609 -14.6994 37.2246 -24.9365 4.16118 -5.85962 -11.1513 1.16733 -0.0362297 -2.61497 8.12152 -1.12164 -15.2652 -4.23853 2.14139 -3.6031 
-3.94004 97.7856 25.7978 -123.228 -84.803 -116.42 -167.721 11.3479 105.055 -32.7279 13.2287 0.606883 81.3585 13.2972 -4.73539 26.7728 -8.12197 15.9866 177.668 1.92978 102.389 -20.5633 -6.28306 1.88047 74.6973 -5.26461 1.57132 20.334 1.81506 6.22232 0.180582 7.8143 -91.156 11.2378 -0.17846 -2.28394 -0.43512 -0.278784 -2.27388 -22.9547 0.516028 -2.23204 -2.94204 0.51602 -2.23206 90.1607 -30.4857 -106.258 33.2274 -23.0185 -9.51919 -13.4602 -18.3952 -24.6717 -11.6442 -0.268935 -2.5904 -89.1111 -51.2399 80.3028 -14.1857 37.9556 -25.5814 3.88111 -5.82954 -10.8202 1.47817 -0.0160799 -2.16765 7.72508 -1.20501 -15.8589 -4.08792 2.12281 -3.21614 
-2.83091 98.0753 26.0363 -124.086 -84.4547 -117.86 -168.593 9.7513 103.389 -31.5895 11.3507 0.890181 81.1854 13.1938 -4.94605 26.6369 -8.44931 16.4824 177.271 1.3262 101.136 -20.0956 -7.37012 1.63849 74.4359 -5.63818 0.241197 19.828 1.37874 8.15791 0.222204 7.83967 -91.1266 11.1883 -0.0814331 -2.23471 -0.484534 -0.179675 -2.22897 -23.005 0.593793 -2.15596 -2.99238 0.5938 -2.15595 89.9388 -30.5407 -106.674 33.1155 -23.0162 -9.32953 -14.4461 -19.7062 -25.5367 -10.3339 -0.234486 -2.65439 -89.1269 -51.2238 80.2762 -14.4572 37.9249 -25.9503 3.88015 -5.73404 -10.7887 0.953836 -0.0381961 -2.56752 7.65948 -1.17207 -15.6091 -4.21542 2.10084 -3.62391 
-1.48649 98.409 26.3518 -127.88 -83.9661 -122.515 -169.303 7.56942 101.469 -29.9382 9.98997 0.968533 80.7363 13.0451 -4.79167 24.9926 -8.67266 14.9135 176.727 0.403793 99.3804 -19.7026 -8.57994 1.24806 73.7819 -5.58861 -0.0963347 21.138 1.01248 7.74361 0.251168 7.88304 -91.0638 11.103 0.00626164 -2.11771 -0.569647 -0.0869194 -2.11593 -23.0919 0.642305 -2.01801 -3.07925 0.642301 -2.01801 89.9135 -30.6675 -106.676 33.1174 -23.3283 -9.60878 -13.6274 -18.4034 -24.9901 -11.0711 -0.136266 -3.92018 -88.9362 -50.8511 80.4861 -15.0628 38.1457 -25.908 4.1786 -5.32303 -11.631 0.94767 -0.0380403 -2.54705 7.05731 -1.36842 -16.7366 -3.90851 2.04154 -3.17215 
